<svg width="210" height="203" viewBox="0 0 210 203" fill="none" xmlns="http://www.w3.org/2000/svg">
<path d="M141.256 166.464H65.8L53.704 202.176H2.15204L75.304 0H132.328L205.48 202.176H153.352L141.256 166.464ZM128.584 128.448L103.528 54.432L78.76 128.448H128.584Z" fill="url(#paint0_linear)"/>
<path d="M0 176.976C0 172.032 1.08 167.616 3.24 163.728C5.4 159.792 8.352 156.744 12.096 154.584C15.84 152.376 20.016 151.272 24.624 151.272C30.24 151.272 35.04 152.616 39.024 155.304C43.056 157.944 45.984 161.688 47.808 166.536H41.904C40.464 163.128 38.256 160.464 35.28 158.544C32.352 156.624 28.8 155.664 24.624 155.664C20.928 155.664 17.592 156.528 14.616 158.256C11.688 159.984 9.384 162.48 7.704 165.744C6.024 168.96 5.184 172.704 5.184 176.976C5.184 181.248 6.024 184.992 7.704 188.208C9.384 191.424 11.688 193.896 14.616 195.624C17.592 197.352 20.928 198.216 24.624 198.216C28.8 198.216 32.352 197.28 35.28 195.408C38.256 193.488 40.464 190.848 41.904 187.488H47.808C45.984 192.288 43.056 196.008 39.024 198.648C34.992 201.288 30.192 202.608 24.624 202.608C20.016 202.608 15.84 201.528 12.096 199.368C8.352 197.16 5.4 194.112 3.24 190.224C1.08 186.336 0 181.92 0 176.976Z" fill="black"/>
<path d="M80.4589 202.68C75.8029 202.68 71.5789 201.6 67.7869 199.44C63.9949 197.232 60.9949 194.184 58.7869 190.296C56.6269 186.36 55.5469 181.92 55.5469 176.976C55.5469 172.032 56.6269 167.616 58.7869 163.728C60.9949 159.792 63.9949 156.744 67.7869 154.584C71.5789 152.376 75.8029 151.272 80.4589 151.272C85.1629 151.272 89.4109 152.376 93.2029 154.584C96.9949 156.744 99.9709 159.792 102.131 163.728C104.291 167.616 105.371 172.032 105.371 176.976C105.371 181.92 104.291 186.36 102.131 190.296C99.9709 194.184 96.9949 197.232 93.2029 199.44C89.4109 201.6 85.1629 202.68 80.4589 202.68ZM80.4589 198.288C84.2029 198.288 87.5629 197.424 90.5389 195.696C93.5149 193.968 95.8669 191.496 97.5949 188.28C99.3229 185.016 100.187 181.248 100.187 176.976C100.187 172.704 99.3229 168.96 97.5949 165.744C95.8669 162.528 93.5149 160.056 90.5389 158.328C87.5629 156.6 84.2029 155.736 80.4589 155.736C76.7149 155.736 73.3549 156.6 70.3789 158.328C67.4029 160.056 65.0509 162.528 63.3229 165.744C61.5949 168.96 60.7309 172.704 60.7309 176.976C60.7309 181.248 61.5949 185.016 63.3229 188.28C65.0509 191.496 67.4029 193.968 70.3789 195.696C73.3549 197.424 76.7149 198.288 80.4589 198.288Z" fill="black"/>
<path d="M119.633 151.848V202.176H114.593V151.848H119.633Z" fill="black"/>
<path d="M168.99 202.176H163.95L136.086 159.84V202.176H131.046V151.848H136.086L163.95 194.112V151.848H168.99V202.176Z" fill="black"/>
<path d="M183.646 197.712H209.35V202.176H177.742V198.144L203.086 156.312H178.174V151.848H208.99V155.88L183.646 197.712Z" fill="black"/>
<defs>
<linearGradient id="paint0_linear" x1="103.544" y1="-2.82399" x2="103.544" y2="202.176" gradientUnits="userSpaceOnUse">
<stop stop-color="#A1FF92"/>
<stop offset="1" stop-color="#A1FF92" stop-opacity="0.6"/>
</linearGradient>
</defs>
</svg>